<svg width="64" height="64" viewBox="0 0 64 64" fill="none" xmlns="http://www.w3.org/2000/svg">
<rect width="64" height="64" rx="12" fill="white"/>
<rect x="1" y="1" width="62" height="62" rx="11" stroke="#25233C" stroke-opacity="0.5" stroke-width="2"/>
<mask id="mask0_978_222" style="mask-type:alpha" maskUnits="userSpaceOnUse" x="0" y="0" width="63" height="63">
<rect width="62.5455" height="62.5455" rx="11" fill="#25233C"/>
</mask>
<g mask="url(#mask0_978_222)">
<rect x="28.4326" y="31.2725" width="62.5455" height="62.5455" rx="11" fill="#F4A11E" fill-opacity="0.1"/>
</g>
<g clip-path="url(#clip0_978_222)">
<path d="M40.3861 42.3953C34.886 46.845 28.2566 46.144 22.9758 40.7699C17.435 35.131 15.974 27.5834 20.3411 22.3462C27.038 29.0452 33.6735 35.6807 40.3861 42.3953Z" fill="#F86202"/>
<path d="M44.6744 20.4255C44.6857 21.3757 43.9378 22.1555 42.993 22.1786C42.0336 22.202 41.227 21.4124 41.2275 20.45C41.228 19.5044 41.994 18.7364 42.9418 18.731C43.8954 18.7257 44.6631 19.4765 44.6744 20.4255Z" fill="white"/>
<path d="M45.6286 18.2749C44.9633 17.4647 43.9882 17 42.9532 17C42.5116 17 42.0786 17.0847 41.6659 17.2516C40.9931 17.5238 40.4593 17.9753 40.0791 18.5935C39.4807 19.5667 39.355 20.5961 39.7051 21.6533L39.7588 21.8151L30.1729 26.9768L30.0293 26.8514C30.0105 26.8248 29.9925 26.7964 29.9742 26.7682L28.6843 25.4132C26.7513 23.4764 24.9172 21.6422 23.1112 19.8395C22.8354 19.5643 22.5542 19.4247 22.2753 19.4247C21.9984 19.4247 21.7292 19.5638 21.4751 19.838C17.2455 24.4023 16.006 29.7228 17.791 35.6514C18.0271 36.4355 18.3743 37.1881 18.7418 37.9849C18.9161 38.3628 19.0964 38.7537 19.2693 39.1583L19.3249 39.2888L19.2217 39.386C19.127 39.4752 19.0236 39.5707 18.9146 39.6714C18.6609 39.9056 18.3732 40.1713 18.1007 40.4457C17.0105 41.5436 16.7998 43.2454 17.5886 44.5839C18.2197 45.6548 19.3332 46.2943 20.5672 46.2942C21.4232 46.2941 22.2447 45.9716 22.8802 45.386C23.1775 45.1122 23.45 44.7992 23.7137 44.4966C23.8368 44.3553 23.9587 44.2152 24.0821 44.0801L24.195 43.9564L24.3379 44.0438C26.5631 45.4048 28.8056 46.1584 31.1937 46.3475C31.6786 46.386 32.1635 46.4054 32.6347 46.4054C36.7203 46.4052 40.3516 44.9472 43.4279 42.072C43.7941 41.7297 43.9744 41.4245 43.9793 41.139C43.9842 40.8547 43.8155 40.5454 43.4637 40.1934L36.8714 33.5993C36.7987 33.5265 36.7282 33.4517 36.6586 33.3777L36.4628 33.1715L41.5917 23.6521L41.7511 23.7012C42.1647 23.8287 42.5745 23.8932 42.9688 23.8932C44.1513 23.8931 45.2342 23.298 45.8652 22.3013C46.6645 21.0388 46.5695 19.4207 45.6286 18.2749ZM22.3595 43.0597C22.2839 43.1343 22.2057 43.2126 22.1251 43.2933C21.9338 43.4851 21.7359 43.6834 21.5264 43.878C21.2585 44.1267 20.9163 44.2636 20.5626 44.2636C20.193 44.2636 19.8397 44.1163 19.5679 43.8488C19.0434 43.3323 19.0142 42.4643 19.5028 41.9137C19.7012 41.6903 19.9136 41.4879 20.119 41.2921C20.2051 41.2101 20.2893 41.1299 20.3693 41.051L20.5134 40.9088L22.5045 42.9166L22.3595 43.0597ZM41.4582 41.0997L41.2829 41.2415C38.8095 43.2426 35.6811 44.3446 32.4739 44.3446C28.868 44.3446 25.5164 42.9546 23.0365 40.431C18.0608 35.3672 17.6887 27.4951 22.1712 22.1197L22.3135 21.949L41.4582 41.0997ZM35.0082 31.5928L31.7994 28.4077L39.2489 24.3498L35.0082 31.5928ZM42.9868 21.8722L42.9525 21.8726C42.577 21.8726 42.2219 21.7241 41.9525 21.4544C41.6827 21.1843 41.5342 20.8278 41.5344 20.4507C41.5348 19.6751 42.1674 19.0405 42.9446 19.0361H42.9522H42.9528C43.7382 19.0361 44.3607 19.6488 44.3701 20.4311C44.3794 21.2069 43.7589 21.8534 42.9868 21.8722Z" fill="#25233C"/>
</g>
<defs>
<clipPath id="clip0_978_222">
<rect width="29.4054" height="29.4054" fill="white" transform="translate(17 17)"/>
</clipPath>
</defs>
</svg>
