<svg width="64" height="64" viewBox="0 0 64 64" fill="none" xmlns="http://www.w3.org/2000/svg">
<rect width="64" height="64" rx="12" fill="white"/>
<rect x="1" y="1" width="62" height="62" rx="11" stroke="#25233C" stroke-opacity="0.5" stroke-width="2"/>
<mask id="mask0_978_220" style="mask-type:alpha" maskUnits="userSpaceOnUse" x="0" y="0" width="63" height="63">
<rect width="62.5455" height="62.5455" rx="11" fill="#25233C"/>
</mask>
<g mask="url(#mask0_978_220)">
<rect x="28.4326" y="31.2725" width="62.5455" height="62.5455" rx="11" fill="#F4A11E" fill-opacity="0.1"/>
</g>
<rect x="22.7334" y="15.0117" width="19.305" height="33.9768" fill="url(#paint0_linear_978_220)"/>
<path d="M36.6037 15.7837V14.7837H35.6037H28.3965H27.3965V15.7837V16.5855C27.3965 16.5984 27.3965 16.6116 27.3965 16.6249C27.3963 16.8248 27.3962 17.0627 27.4237 17.2674C27.4569 17.5144 27.5458 17.8562 27.8358 18.1462C28.1258 18.4361 28.4676 18.5251 28.7146 18.5583C28.9193 18.5858 29.1572 18.5856 29.3571 18.5855C29.3704 18.5855 29.3835 18.5855 29.3965 18.5855H34.6037C34.6166 18.5855 34.6298 18.5855 34.6431 18.5855C34.843 18.5856 35.0809 18.5858 35.2856 18.5583C35.5326 18.5251 35.8744 18.4361 36.1644 18.1462C36.4543 17.8562 36.5433 17.5144 36.5765 17.2674C36.604 17.0627 36.6038 16.8248 36.6037 16.6249C36.6037 16.6116 36.6037 16.5984 36.6037 16.5855V15.7837Z" fill="white" stroke="#25233C" stroke-width="2"/>
<rect x="22.1895" y="14.9819" width="19.6216" height="34.036" rx="1" stroke="#25233C" stroke-width="2"/>
<path d="M32.0531 34.7745H31.3382C30.0748 34.7745 29.4431 34.7745 29.1437 34.3602C28.8443 33.9458 29.0427 33.3461 29.4393 32.1466L31.5784 25.678C31.9479 24.5607 32.1326 24.0021 32.3429 24.0359C32.5531 24.0698 32.5531 24.6582 32.5531 25.835V30.2598C32.5531 30.4955 32.5531 30.6134 32.6263 30.6866C32.6996 30.7598 32.8174 30.7598 33.0531 30.7598H33.768C35.0314 30.7598 35.6632 30.7598 35.9625 31.1741C36.2619 31.5885 36.0636 32.1882 35.6669 33.3877L33.5278 39.8563C33.1584 40.9736 32.9736 41.5323 32.7634 41.4984C32.5531 41.4645 32.5531 40.8761 32.5531 39.6993V35.2745C32.5531 35.0388 32.5531 34.9209 32.4799 34.8477C32.4067 34.7745 32.2888 34.7745 32.0531 34.7745Z" fill="white"/>
<defs>
<linearGradient id="paint0_linear_978_220" x1="32.3859" y1="15.0117" x2="32.3859" y2="48.9886" gradientUnits="userSpaceOnUse">
<stop stop-color="#FC8814"/>
<stop offset="1" stop-color="#F86403"/>
</linearGradient>
</defs>
</svg>
