<svg width="64" height="64" viewBox="0 0 64 64" fill="none" xmlns="http://www.w3.org/2000/svg">
<rect width="64" height="64" rx="12" fill="white"/>
<rect x="1" y="1" width="62" height="62" rx="11" stroke="#25233C" stroke-opacity="0.5" stroke-width="2"/>
<mask id="mask0_978_224" style="mask-type:alpha" maskUnits="userSpaceOnUse" x="0" y="0" width="63" height="63">
<rect width="62.5455" height="62.5455" rx="11" fill="#25233C"/>
</mask>
<g mask="url(#mask0_978_224)">
<rect x="28.4316" y="31.2725" width="62.5455" height="62.5455" rx="11" fill="#F4A11E" fill-opacity="0.1"/>
</g>
<g clip-path="url(#clip0_978_224)">
<rect x="17.3594" y="23.873" width="29.8996" height="25.8224" rx="3" fill="white"/>
<path d="M30.9268 23.4599C30.104 22.5031 29.3632 21.6406 28.6211 20.7791C26.8208 18.6891 25.0199 16.5997 23.2196 14.51C23.1401 14.4177 23.0582 14.327 22.9847 14.2299C22.7174 13.877 22.7344 13.4687 23.024 13.2012C23.3325 12.9162 23.7667 12.9284 24.0777 13.2784C24.8267 14.1212 25.5572 14.9807 26.2935 15.8349C28.2236 18.0744 30.1526 20.3148 32.0826 22.5546C32.1507 22.6336 32.2244 22.7077 32.323 22.8137C32.4476 22.6785 32.5609 22.5624 32.6666 22.4397C35.2236 19.4729 37.7798 16.5056 40.3361 13.5382C40.3957 13.469 40.4539 13.3981 40.5161 13.3312C40.8652 12.9555 41.2715 12.8993 41.6015 13.1796C41.9244 13.454 41.9456 13.8992 41.6262 14.2766C40.9174 15.1141 40.197 15.9418 39.481 16.7731C37.5919 18.9664 35.7024 21.1593 33.7206 23.4597C33.9898 23.4597 34.1577 23.4597 34.3256 23.4597C37.1606 23.4597 39.9956 23.4532 42.8305 23.4617C45.5356 23.4699 47.7943 25.185 48.4522 27.7543C48.5865 28.2788 48.6368 28.8378 48.6383 29.3812C48.6517 34.6243 48.6517 39.8675 48.6445 45.1106C48.6398 48.6007 46.1687 51.0523 42.6733 51.0528C35.7231 51.0538 28.7728 51.0561 21.8226 51.0516C18.9438 51.0497 16.633 49.1414 16.0942 46.3227C16.0232 45.9515 16.0078 45.5652 16.0074 45.1857C16.002 39.8968 15.9964 34.6079 16.0068 29.3191C16.0124 26.4199 17.867 24.134 20.6543 23.5727C21.069 23.4891 21.5018 23.4658 21.9263 23.4644C24.7154 23.4551 27.5048 23.4596 30.294 23.4596C30.4605 23.4599 30.6272 23.4599 30.9268 23.4599ZM32.2992 49.5898C35.7586 49.5898 39.2178 49.5959 42.6772 49.5824C43.1443 49.5806 43.6272 49.539 44.0751 49.4155C45.966 48.8938 47.1701 47.2864 47.1767 45.229C47.1935 39.9104 47.1838 34.5919 47.1783 29.2734C47.1779 28.9555 47.1534 28.6306 47.0862 28.3207C46.6323 26.2282 44.936 24.9259 42.6604 24.9246C35.7722 24.9211 28.8841 24.9216 21.9958 24.9279C21.602 24.9283 21.1987 24.9516 20.8161 25.0368C18.7781 25.4907 17.475 27.1642 17.4706 29.3584C17.4602 34.6312 17.4658 39.904 17.471 45.1769C17.4713 45.5104 17.4879 45.8514 17.5563 46.1763C17.979 48.1857 19.674 49.5774 21.7383 49.5854C25.2586 49.5989 28.7788 49.5891 32.2992 49.5898Z" fill="#25233C"/>
<path d="M25.8811 46.9775C24.2505 46.9775 22.6201 46.9781 20.9895 46.9772C20.3797 46.9769 20.0784 46.2526 20.078 44.7736C20.0769 39.8962 20.0768 35.0189 20.0781 30.1417C20.0784 28.6929 20.3783 27.9544 20.9735 27.9537C24.2568 27.9496 27.5402 27.9498 30.8235 27.9536C31.4297 27.9543 31.7246 27.9532 32.3079 27.9541C32.3089 32.8132 32.3093 42.1181 32.3079 46.9772C30.8173 46.9773 31.4245 46.9769 30.8173 46.9773C29.1719 46.9781 27.5265 46.9775 25.8811 46.9775Z" fill="#F86202"/>
<path d="M32.3076 26.5946C35.7125 26.5946 39.1173 26.5901 42.5222 26.5964C44.2384 26.5996 45.46 27.6213 45.8143 29.3561C45.8868 29.7114 45.8945 30.0899 45.8949 30.4576C45.9 35.1288 45.9003 39.8002 45.8974 44.4715C45.8959 46.892 44.6151 48.3355 42.4776 48.3357C35.637 48.3362 28.7962 48.3378 21.9555 48.3342C20.3773 48.3334 19.1414 47.255 18.8002 45.5759C18.7313 45.2373 18.7228 44.877 18.7224 44.5267C18.7176 39.8201 18.7158 35.1135 18.7205 30.407C18.7229 28.0717 19.9948 26.6061 22.0466 26.5984C25.4668 26.5851 28.8872 26.5946 32.3076 26.5946ZM32.2666 46.643C35.6861 46.643 39.1058 46.6437 42.5253 46.6427C43.7874 46.6423 44.41 45.941 44.4109 44.5045C44.4136 39.8166 44.4132 35.1287 44.4113 30.4408C44.4106 28.9994 43.7981 28.2897 42.5383 28.2892C35.7146 28.2855 28.8909 28.2854 22.0672 28.2893C20.8303 28.29 20.2073 29.0025 20.2064 30.4002C20.2038 35.1057 20.204 39.8112 20.2063 44.5166C20.207 45.9435 20.8332 46.6423 22.1007 46.6426C25.4894 46.6436 28.8779 46.643 32.2666 46.643Z" fill="#25233C"/>
</g>
<defs>
<clipPath id="clip0_978_224">
<rect width="32.6482" height="38.0541" fill="white" transform="translate(16 13)"/>
</clipPath>
</defs>
</svg>
