<svg width="64" height="64" viewBox="0 0 64 64" fill="none" xmlns="http://www.w3.org/2000/svg">
<rect width="64" height="64" rx="12" fill="white"/>
<rect x="1" y="1" width="62" height="62" rx="11" stroke="#25233C" stroke-opacity="0.5" stroke-width="2"/>
<mask id="mask0_978_221" style="mask-type:alpha" maskUnits="userSpaceOnUse" x="0" y="0" width="63" height="63">
<rect width="62.5455" height="62.5455" rx="11" fill="#25233C"/>
</mask>
<g mask="url(#mask0_978_221)">
<rect x="28.4326" y="31.2725" width="62.5455" height="62.5455" rx="11" fill="#F4A11E" fill-opacity="0.1"/>
</g>
<rect x="23" y="16" width="19.305" height="33.9768" fill="white"/>
<path d="M36.6037 15.7837V14.7837H35.6037H28.3965H27.3965V15.7837V16.5855C27.3965 16.5984 27.3965 16.6116 27.3965 16.6249C27.3963 16.8248 27.3962 17.0627 27.4237 17.2674C27.4569 17.5144 27.5458 17.8562 27.8358 18.1462C28.1258 18.4361 28.4676 18.5251 28.7146 18.5583C28.9193 18.5858 29.1572 18.5856 29.3571 18.5855C29.3704 18.5855 29.3835 18.5855 29.3965 18.5855H34.6037C34.6166 18.5855 34.6298 18.5855 34.6431 18.5855C34.843 18.5856 35.0809 18.5858 35.2856 18.5583C35.5326 18.5251 35.8744 18.4361 36.1644 18.1462C36.4543 17.8562 36.5433 17.5144 36.5765 17.2674C36.604 17.0627 36.6038 16.8248 36.6037 16.6249C36.6037 16.6116 36.6037 16.5984 36.6037 16.5855V15.7837Z" fill="white" stroke="#25233C" stroke-width="2"/>
<rect x="22.1895" y="14.9819" width="19.6216" height="34.036" rx="1" stroke="#25233C" stroke-width="2"/>
<path d="M32.0531 34.7745H31.3382C30.0748 34.7745 29.4431 34.7745 29.1437 34.3602C28.8443 33.9458 29.0427 33.3461 29.4393 32.1466L31.5784 25.678C31.9479 24.5607 32.1326 24.0021 32.3429 24.0359C32.5531 24.0698 32.5531 24.6582 32.5531 25.835V30.2598C32.5531 30.4955 32.5531 30.6134 32.6263 30.6866C32.6996 30.7598 32.8174 30.7598 33.0531 30.7598H33.768C35.0314 30.7598 35.6632 30.7598 35.9625 31.1741C36.2619 31.5885 36.0636 32.1882 35.6669 33.3877L33.5278 39.8563C33.1584 40.9736 32.9736 41.5323 32.7634 41.4984C32.5531 41.4645 32.5531 40.8761 32.5531 39.6993V35.2745C32.5531 35.0388 32.5531 34.9209 32.4799 34.8477C32.4067 34.7745 32.2888 34.7745 32.0531 34.7745Z" fill="#FC8011"/>
<circle cx="41" cy="17" r="6.25" fill="#FC8011" stroke="#25233C" stroke-width="1.5"/>
<path d="M44.0342 15.6631L43.79 16.5664H39.2002L39.4492 15.6631H44.0342ZM41.749 21L39.3418 18.1582L39.3369 17.377H40.499C40.7822 17.377 41.015 17.3249 41.1973 17.2207C41.3828 17.1133 41.5212 16.9684 41.6123 16.7861C41.7067 16.6038 41.7539 16.3988 41.7539 16.1709C41.7539 15.9333 41.7116 15.7233 41.627 15.541C41.5423 15.3555 41.4072 15.2106 41.2217 15.1064C41.0361 15.0023 40.7904 14.9502 40.4844 14.9502H39.2051L39.4834 13.8906H40.4844C41.0638 13.8906 41.5456 13.9785 41.9297 14.1543C42.3171 14.3268 42.6068 14.5791 42.7988 14.9111C42.9941 15.2399 43.0918 15.637 43.0918 16.1025C43.0918 16.5094 43.0234 16.8691 42.8867 17.1816C42.7533 17.4909 42.5368 17.7432 42.2373 17.9385C41.9378 18.1338 41.5439 18.264 41.0557 18.3291L43.2383 20.9316V21H41.749ZM44.0391 13.8906L43.79 14.7939H40.0156L40.2646 13.8906H44.0391Z" fill="white"/>
</svg>
